# xmcd
#
# Track frame offsets: 
#        150
#        11542
#        28480
#        40933
#        57098
#        69249
#        88782
#        108096
#        125837
#        140261
#        153201
#        166666
#        179961
#        193421
#
# Disc length: 2802 seconds
#
# Revision: 0
# Processed by: cddbd v1.5.2PL0 Copyright (c) Steve Scherf et al.
# Submitted via: ExactAudioCopy v0.95a5
#
DISCID=c10af00e
DTITLE=Sawmill Road - Fire On The Kettle
DYEAR=2009
DGENRE=Bluegrass
TTITLE0=Leave Me The Way I Am
TTITLE1=The Rose of Donnally's Hollow
TTITLE2=Down In Caroline
TTITLE3=Fire On The Kettle
TTITLE4=Lonesome Road to Travel
TTITLE5=Dunluce Castle
TTITLE6=The Leaves Mustn't Fall
TTITLE7=The Mary Ellen Carter
TTITLE8=The Far Side of the River
TTITLE9=I Found Another Darlin'
TTITLE10=Heaven's Key
TTITLE11=As Far As Love Goes
TTITLE12=Reaquainted With the Blues
TTITLE13=Handsome Molly
EXTD=
EXTT0=
EXTT1=
EXTT2=
EXTT3=
EXTT4=
EXTT5=
EXTT6=
EXTT7=
EXTT8=
EXTT9=
EXTT10=
EXTT11=
EXTT12=
EXTT13=
PLAYORDER=
